<svg width="20" height="20" viewBox="0 0 20 20" fill="none" xmlns="http://www.w3.org/2000/svg">
<path d="M3.33301 9.9974C3.33301 10.2184 3.42081 10.4304 3.57709 10.5867C3.73337 10.7429 3.94533 10.8307 4.16634 10.8307H10.4913L8.57467 12.7391C8.49657 12.8165 8.43457 12.9087 8.39226 13.0102C8.34996 13.1118 8.32818 13.2207 8.32818 13.3307C8.32818 13.4407 8.34996 13.5497 8.39226 13.6512C8.43457 13.7528 8.49657 13.8449 8.57467 13.9224C8.65214 14.0005 8.74431 14.0625 8.84586 14.1048C8.94741 14.1471 9.05633 14.1689 9.16634 14.1689C9.27635 14.1689 9.38527 14.1471 9.48682 14.1048C9.58837 14.0625 9.68054 14.0005 9.75801 13.9224L13.0913 10.5891C13.1672 10.5098 13.2267 10.4164 13.2663 10.3141C13.3497 10.1112 13.3497 9.88361 13.2663 9.68073C13.2267 9.57844 13.1672 9.48498 13.0913 9.40573L9.75801 6.0724C9.68031 5.9947 9.58807 5.93306 9.48655 5.89101C9.38503 5.84896 9.27622 5.82732 9.16634 5.82732C9.05646 5.82732 8.94765 5.84896 8.84613 5.89101C8.74461 5.93306 8.65237 5.9947 8.57467 6.0724C8.49697 6.15009 8.43534 6.24234 8.39329 6.34385C8.35124 6.44537 8.3296 6.55418 8.3296 6.66406C8.3296 6.77395 8.35124 6.88275 8.39329 6.98427C8.43534 7.08579 8.49697 7.17803 8.57467 7.25573L10.4913 9.16406H4.16634C3.94533 9.16406 3.73337 9.25186 3.57709 9.40814C3.42081 9.56442 3.33301 9.77638 3.33301 9.9974ZM14.1663 1.66406H5.83301C5.16997 1.66406 4.53408 1.92745 4.06524 2.3963C3.5964 2.86514 3.33301 3.50102 3.33301 4.16406V6.66406C3.33301 6.88508 3.42081 7.09704 3.57709 7.25332C3.73337 7.4096 3.94533 7.4974 4.16634 7.4974C4.38735 7.4974 4.59932 7.4096 4.7556 7.25332C4.91188 7.09704 4.99967 6.88508 4.99967 6.66406V4.16406C4.99967 3.94305 5.08747 3.73109 5.24375 3.57481C5.40003 3.41853 5.61199 3.33073 5.83301 3.33073H14.1663C14.3874 3.33073 14.5993 3.41853 14.7556 3.57481C14.9119 3.73109 14.9997 3.94305 14.9997 4.16406V15.8307C14.9997 16.0517 14.9119 16.2637 14.7556 16.42C14.5993 16.5763 14.3874 16.6641 14.1663 16.6641H5.83301C5.61199 16.6641 5.40003 16.5763 5.24375 16.42C5.08747 16.2637 4.99967 16.0517 4.99967 15.8307V13.3307C4.99967 13.1097 4.91188 12.8978 4.7556 12.7415C4.59932 12.5852 4.38735 12.4974 4.16634 12.4974C3.94533 12.4974 3.73337 12.5852 3.57709 12.7415C3.42081 12.8978 3.33301 13.1097 3.33301 13.3307V15.8307C3.33301 16.4938 3.5964 17.1297 4.06524 17.5985C4.53408 18.0673 5.16997 18.3307 5.83301 18.3307H14.1663C14.8294 18.3307 15.4653 18.0673 15.9341 17.5985C16.4029 17.1297 16.6663 16.4938 16.6663 15.8307V4.16406C16.6663 3.50102 16.4029 2.86514 15.9341 2.3963C15.4653 1.92745 14.8294 1.66406 14.1663 1.66406Z" fill="#242424"/>
</svg>
